#!OML:ASF X:\für Bonn\!DataBase\2005_08_11_Bastian_Final\c3d\Bastian.ASF
:FULLY-SPECIFIED
:DEGREES
2743
root 1.73192 16.9507 -11.1998 168.245 5.39069 -174.817
lowerback 20.0913 -0.662935 3.80227
upperback 14.2739 3.54381 -4.4056
thorax 4.88972 3.89607 -7.34386
lowerneck 7.56648 7.16822 1.00795
upperneck 21.9495 7.23122 -0.667812
head 5.49579 2.61192 -0.295613
rclavicle 2.22639e-014 2.70347e-014
rhumerus -397.631 1.23129 277.043
rradius 83.6115
rwrist -130.402
rhand -12.4748 6.62519
rfingers 7.12502
rthumb 13.5994 -382.911
lclavicle 2.22639e-014 2.70347e-014
lhumerus -35.3847 20.8666 64.2471
lradius 72.4886
lwrist 223.7
lhand -26.928 14.9166
lfingers 7.12502
lthumb -0.35053 44.8961
rfemur 17.9136 -7.47857 28.6651
rtibia 25.5069
rfoot -23.6024 -7.83322
rtoes -0.487941
lfemur -22.2258 6.84344 -17.6803
ltibia 27.5598
lfoot -21.1104 -6.32045
ltoes -32.4271
2744
root 1.70317 16.965 -11.0244 167.951 5.12561 -174.666
lowerback 20.6354 -0.819799 3.88531
upperback 14.3775 3.44827 -4.34912
thorax 4.719 3.88606 -7.3466
lowerneck 7.68418 7.04218 0.961886
upperneck 21.8296 7.08566 -0.794023
head 5.43973 2.53534 -0.335573
rclavicle 9.54166e-015 -4.29375e-014
rhumerus -397.814 1.34982 276.99
rradius 83.8497
rwrist -130.462
rhand -12.538 6.57598
rfingers 7.12502
rthumb 13.5385 -382.964
lclavicle 9.54166e-015 -4.29375e-014
lhumerus -35.2335 20.7507 64.4166
lradius 72.5753
lwrist 223.85
lhand -27.1255 15.1122
lfingers 7.12502
lthumb -0.541274 45.0913
rfemur 17.2976 -7.75748 28.7678
rtibia 26.0421
rfoot -23.5626 -7.95966
rtoes -0.214272
lfemur -22.0352 7.52463 -17.6015
ltibia 28.2429
lfoot -20.9398 -4.85972
ltoes -30.9917
2745
root 1.67437 16.9824 -10.8503 167.666 4.83007 -174.574
lowerback 21.1887 -0.976321 3.87228
upperback 14.4733 3.33742 -4.28978
thorax 4.52774 3.85889 -7.28826
lowerneck 7.74834 6.92244 0.888938
upperneck 21.7868 6.94073 -0.927535
head 5.41577 2.45274 -0.371292
rclavicle -4.29375e-014 -2.38542e-014
rhumerus -397.992 1.46096 276.961
rradius 84.0345
rwrist -130.615
rhand -12.6457 6.4751
rfingers 7.12502
rthumb 13.4347 -383.072
lclavicle -4.29375e-014 -2.38542e-014
lhumerus -35.0451 20.6516 64.5958
lradius 72.5676
lwrist 223.904
lhand -27.2897 15.4345
lfingers 7.12502
lthumb -0.699842 45.4131
rfemur 16.6665 -7.96673 28.8273
rtibia 26.5869
rfoot -23.5306 -8.05843
rtoes 0.528436
lfemur -21.7957 8.045 -17.544
ltibia 29.2139
lfoot -20.5554 -3.13656
ltoes -29.1749
2746
root 1.64575 16.9991 -10.6803 167.419 4.54374 -174.485
lowerback 21.7042 -1.12305 3.87199
upperback 14.532 3.22552 -4.25112
thorax 4.31739 3.82539 -7.25857
lowerneck 7.87733 6.8035 0.841529
upperneck 21.7353 6.78665 -1.03994
head 5.37891 2.36675 -0.406645
rclavicle 5.56597e-015 5.40694e-014
rhumerus -398.276 1.53877 276.885
rradius 84.219
rwrist -130.78
rhand -12.7794 6.39253
rfingers 7.12502
rthumb 13.3059 -383.163
lclavicle 5.56597e-015 5.40694e-014
lhumerus -34.9115 20.4916 64.7255
lradius 72.5978
lwrist 223.877
lhand -27.3721 15.7486
lfingers 7.12502
lthumb -0.77949 45.7269
rfemur 15.9847 -8.0418 28.9397
rtibia 27.1567
rfoot -23.4395 -8.25074
rtoes 1.21269
lfemur -21.585 8.45676 -17.4524
ltibia 30.4481
lfoot -20.0321 -1.49387
ltoes -27.847
2747
root 1.61799 17.0152 -10.513 167.214 4.2068 -174.53
lowerback 22.1641 -1.24672 3.68442
upperback 14.5854 3.10434 -4.21339
thorax 4.11818 3.77017 -7.11524
lowerneck 7.90064 6.68294 0.771233
upperneck 21.7942 6.62972 -1.20028
head 5.39445 2.27039 -0.449849
rclavicle -3.4191e-014 -1.59028e-015
rhumerus -398.559 1.65645 276.814
rradius 84.3756
rwrist -130.932
rhand -12.8894 6.33778
rfingers 7.12502
rthumb 13.1998 -383.224
lclavicle -3.4191e-014 -1.59028e-015
lhumerus -34.78 20.3214 64.9017
lradius 72.5631
lwrist 223.868
lhand -27.3882 16.1074
lfingers 7.12502
lthumb -0.794983 46.0856
rfemur 15.2431 -8.01673 28.9552
rtibia 27.7699
rfoot -23.3718 -8.51584
rtoes 1.99366
lfemur -21.4421 8.91576 -17.5071
ltibia 31.8536
lfoot -19.4567 -0.220851
ltoes -27.6498
2748
root 1.58942 17.0311 -10.3512 167.072 3.79893 -174.632
lowerback 22.4949 -1.38026 3.45802
upperback 14.6345 2.94839 -4.20016
thorax 3.97425 3.69289 -6.9611
lowerneck 7.97896 6.58055 0.637497
upperneck 21.8371 6.47805 -1.28465
head 5.39133 2.17449 -0.460398
rclavicle -1.11319e-014 -2.06736e-014
rhumerus -398.884 1.79686 276.724
rradius 84.4942
rwrist -131.156
rhand -12.9843 6.30944
rfingers 7.12502
rthumb 13.1083 -383.259
lclavicle -1.11319e-014 -2.06736e-014
lhumerus -34.6624 20.1497 65.0398
lradius 72.5086
lwrist 223.858
lhand -27.4074 16.4131
lfingers 7.12502
lthumb -0.813589 46.3913
rfemur 14.4351 -7.99358 28.8936
rtibia 28.4139
rfoot -23.2628 -8.77191
rtoes 2.73807
lfemur -21.3354 9.26019 -17.6045
ltibia 33.3542
lfoot -18.7838 0.921356
ltoes -28.7472
2749
root 1.56117 17.048 -10.1954 166.945 3.37415 -174.765
lowerback 22.7555 -1.50761 3.20832
upperback 14.6954 2.7956 -4.20199
thorax 3.88111 3.6187 -6.8042
lowerneck 8.06012 6.46963 0.571864
upperneck 21.8875 6.32208 -1.4122
head 5.39408 2.07904 -0.495695
rclavicle -6.44062e-014 3.65764e-014
rhumerus -399.229 1.90487 276.59
rradius 84.5768
rwrist -131.341
rhand -13.0207 6.29007
rfingers 7.12502
rthumb 13.0732 -383.28
lclavicle -6.44062e-014 3.65764e-014
lhumerus -34.543 19.9161 65.1698
lradius 72.4577
lwrist 223.955
lhand -27.3902 16.6681
lfingers 7.12502
lthumb -0.797001 46.6464
rfemur 13.6373 -7.89623 28.8182
rtibia 29.0606
rfoot -23.0888 -9.07011
rtoes 3.2509
lfemur -21.1689 9.47748 -17.6502
ltibia 34.883
lfoot -17.901 1.83948
ltoes -29.7961
2750
root 1.5331 17.0649 -10.0444 166.861 2.92835 -174.913
lowerback 22.9347 -1.63125 2.93128
upperback 14.7468 2.62678 -4.18987
thorax 3.8142 3.52846 -6.60773
lowerneck 8.15024 6.37883 0.406794
upperneck 21.9781 6.17217 -1.48994
head 5.40321 1.97741 -0.499132
rclavicle 3.18055e-014 4.29375e-014
rhumerus -399.633 2.10379 276.472
rradius 84.6397
rwrist -131.527
rhand -12.9621 6.33004
rfingers 7.12502
rthumb 13.1297 -383.237
lclavicle 3.18055e-014 4.29375e-014
lhumerus -34.4566 19.6934 65.3067
lradius 72.4501
lwrist 224.062
lhand -27.368 16.7062
lfingers 7.12502
lthumb -0.775511 46.6845
rfemur 12.8258 -7.84809 28.6951
rtibia 29.6692
rfoot -22.8286 -9.31479
rtoes 3.78853
lfemur -20.9517 9.39769 -17.6034
ltibia 36.414
lfoot -17.0809 2.47762
ltoes -30.8208
2751
root 1.50428 17.0834 -9.89761 166.793 2.53959 -175.007
lowerback 23.0838 -1.74678 2.73205
upperback 14.8078 2.48518 -4.18896
thorax 3.7832 3.4609 -6.47061
lowerneck 8.20701 6.27704 0.297031
upperneck 22.0328 6.01752 -1.5487
head 5.40755 1.88307 -0.504746
rclavicle -5.56597e-015 -4.77083e-015
rhumerus -400.026 2.24725 276.282
rradius 84.6622
rwrist -131.646
rhand -12.7918 6.43698
rfingers 7.12502
rthumb 13.2938 -383.119
lclavicle -5.56597e-015 -4.77083e-015
lhumerus -34.3106 19.4297 65.4151
lradius 72.429
lwrist 224.178
lhand -27.349 16.7168
lfingers 7.12502
lthumb -0.757138 46.6952
rfemur 12.0525 -7.74628 28.6304
rtibia 30.2127
rfoot -22.5632 -9.52075
rtoes 4.31722
lfemur -20.6557 9.10429 -17.3784
ltibia 37.9309
lfoot -16.3349 2.79016
ltoes -31.2603
2752
root 1.47684 17.1054 -9.75489 166.73 2.19372 -175.199
lowerback 23.2103 -1.81516 2.39717
upperback 14.8655 2.37766 -4.19187
thorax 3.7612 3.39951 -6.26409
lowerneck 8.18003 6.18699 0.125404
upperneck 22.1694 5.86691 -1.57212
head 5.44825 1.78399 -0.486829
rclavicle 2.70347e-014 7.95139e-015
rhumerus -400.434 2.39627 276.133
rradius 84.6744
rwrist -131.864
rhand -12.539 6.52067
rfingers 7.12502
rthumb 13.5375 -383.019
lclavicle 2.70347e-014 7.95139e-015
lhumerus -34.1817 19.1563 65.5387
lradius 72.4556
lwrist 224.246
lhand -27.2884 16.6038
lfingers 7.12502
lthumb -0.698667 46.5824
rfemur 11.3065 -7.57257 28.4765
rtibia 30.6967
rfoot -22.2643 -9.76207
rtoes 4.7319
lfemur -20.2714 8.87543 -17.1913
ltibia 39.4136
lfoot -15.5034 2.74371
ltoes -31.3215
2753
root 1.44866 17.1299 -9.61771 166.713 1.93117 -175.35
lowerback 23.232 -1.85852 2.12334
upperback 14.9322 2.30746 -4.19677
thorax 3.80937 3.36063 -6.09548
lowerneck 8.17938 6.08329 -0.0212449
upperneck 22.2328 5.70872 -1.59799
head 5.46255 1.68781 -0.474582
rclavicle 2.38542e-015 1.74931e-014
rhumerus -400.856 2.53086 275.982
rradius 84.7283
rwrist -132.136
rhand -12.3078 6.62718
rfingers 7.12502
rthumb 13.7604 -382.898
lclavicle 2.38542e-015 1.74931e-014
lhumerus -34.0211 18.8477 65.6465
lradius 72.4684
lwrist 224.274
lhand -27.2854 16.5766
lfingers 7.12502
lthumb -0.695703 46.5552
rfemur 10.5721 -7.33949 28.3766
rtibia 31.1171
rfoot -21.9821 -10.0118
rtoes 5.00794
lfemur -19.8135 8.68868 -16.8929
ltibia 40.8788
lfoot -14.7054 2.38662
ltoes -30.2884
